<?xml version="1.0" encoding="utf-8"?>
<!-- Generator: Adobe Illustrator 15.0.0, SVG Export Plug-In . SVG Version: 6.00 Build 0)  -->
<!DOCTYPE svg PUBLIC "-//W3C//DTD SVG 1.1//EN" "http://www.w3.org/Graphics/SVG/1.1/DTD/svg11.dtd">
<svg version="1.1" xmlns="http://www.w3.org/2000/svg" xmlns:xlink="http://www.w3.org/1999/xlink" x="0px" y="0px" width="240px"
	 height="240px" viewBox="0 0 240 240" enable-background="new 0 0 240 240" xml:space="preserve">
<g id="Layer_2">
	<rect x="-116.551" y="26.239" fill-rule="evenodd" clip-rule="evenodd" fill="none" width="500" height="500"/>
</g>
<g id="Layer_1">
	<path fill-rule="evenodd" clip-rule="evenodd" fill="#0066CC" d="M46.772,75.682V61.643L31.521,46.391l15.324-15.359l15.286,15.286
		l15.14-15.174l-10.117-10.12l10.228-10.228l10.228,10.228l-10.119,10.12l15.177,15.174l15.25-15.286l15.36,15.359l-15.25,15.252
		v14.039H46.772z M77.271,61.606l-15.14-15.144L46.954,61.606H77.271z M107.845,61.606L92.668,46.463L77.491,61.606H107.845z"/>
	<g>
		<path fill="#0066CC" d="M65.501,107.065c0-7.662-1.45-13.105-4.351-16.328s-7.825-4.977-14.771-5.264v-5.479h61.982l70.898,86.689
			V89.065c0-7.662-1.414-13.068-4.242-16.221c-2.83-3.15-7.789-4.904-14.879-5.264v-5.586h48.34v5.479
			c-6.946,0.287-11.869,2.041-14.77,5.264s-4.352,8.666-4.352,16.328v140.139h-16.758L75.599,111.04v91.094
			c0,7.664,1.432,13.089,4.297,16.274c2.863,3.188,7.805,4.96,14.824,5.317v5.479H46.38v-5.479c6.945-0.215,11.87-1.95,14.771-5.21
			c2.9-3.258,4.351-8.718,4.351-16.382V107.065z"/>
	</g>
</g>
</svg>
